<?xml version="1.0" encoding="UTF-8" standalone="no"?><svg width="47" height="48" viewBox="0 0 47 48" fill="none" xmlns="http://www.w3.org/2000/svg">
<path d="M9.99709 35.2215C8.37309 35.2215 6.91782 34.9578 5.63127 34.4305C4.34473 33.9033 3.31127 33.1229 2.53091 32.0895C1.77164 31.056 1.37091 29.8116 1.32873 28.3564H7.08655C7.17091 29.1789 7.45564 29.8116 7.94073 30.2545C8.42582 30.6764 9.05855 30.8873 9.83891 30.8873C10.6404 30.8873 11.2731 30.708 11.7371 30.3495C12.2011 29.9698 12.4331 29.4531 12.4331 28.7993C12.4331 28.2509 12.2433 27.7975 11.8636 27.4389C11.5051 27.0804 11.0516 26.7851 10.5033 26.5531C9.976 26.3211 9.21673 26.0575 8.22545 25.7622C6.79127 25.3193 5.62073 24.8764 4.71382 24.4335C3.80691 23.9905 3.02655 23.3367 2.37273 22.472C1.71891 21.6073 1.392 20.4789 1.392 19.0869C1.392 17.02 2.14073 15.4065 3.63818 14.2465C5.13564 13.0655 7.08655 12.4749 9.49091 12.4749C11.9375 12.4749 13.9095 13.0655 15.4069 14.2465C16.9044 15.4065 17.7058 17.0305 17.8113 19.1185H11.9585C11.9164 18.4015 11.6527 17.8425 11.1676 17.4418C10.6825 17.02 10.0604 16.8091 9.30109 16.8091C8.64727 16.8091 8.12 16.9884 7.71927 17.3469C7.31855 17.6844 7.11818 18.18 7.11818 18.8338C7.11818 19.5509 7.45564 20.1098 8.13055 20.5105C8.80545 20.9113 9.86 21.3436 11.2942 21.8076C12.7284 22.2927 13.8884 22.7567 14.7742 23.1996C15.6811 23.6425 16.4615 24.2858 17.1153 25.1295C17.7691 25.9731 18.096 27.0593 18.096 28.388C18.096 29.6535 17.7691 30.8029 17.1153 31.8364C16.4825 32.8698 15.5545 33.6924 14.3313 34.304C13.108 34.9156 11.6633 35.2215 9.99709 35.2215ZM38.414 31.0771H30.1252L28.7965 35H23.1336L31.1692 12.7913H37.4332L45.4689 35H39.7427L38.414 31.0771ZM37.022 26.9011L34.2696 18.7705L31.5489 26.9011H37.022Z" fill="#01653D"/>
<path d="M28.9965 5.75818L18.8882 34.9217L28.9965 8.04997L31.1025 9.04843L28.9965 5.75818Z" fill="#29282D" stroke="#29282D" stroke-width="1.09091"/>
</svg>
